<?xml version="1.0" encoding="UTF-8" standalone="no"?>
<!-- Created with Inkscape (http://www.inkscape.org/) -->

<svg
   version="1.1"
   id="svg1"
   width="382.20001"
   height="137.50667"
   viewBox="0 0 382.20001 137.50667"
   sodipodi:docname="LD_ecgrid-full-color.eps"
   xmlns:inkscape="http://www.inkscape.org/namespaces/inkscape"
   xmlns:sodipodi="http://sodipodi.sourceforge.net/DTD/sodipodi-0.dtd"
   xmlns="http://www.w3.org/2000/svg"
   xmlns:svg="http://www.w3.org/2000/svg">
  <defs
     id="defs1" />
  <sodipodi:namedview
     id="namedview1"
     pagecolor="#ffffff"
     bordercolor="#000000"
     borderopacity="0.25"
     inkscape:showpageshadow="2"
     inkscape:pageopacity="0.0"
     inkscape:pagecheckerboard="0"
     inkscape:deskcolor="#d1d1d1">
    <inkscape:page
       x="0"
       y="0"
       inkscape:label="1"
       id="page1"
       width="382.20001"
       height="137.50667"
       margin="0"
       bleed="0" />
  </sodipodi:namedview>
  <g
     id="g1"
     inkscape:groupmode="layer"
     inkscape:label="1">
    <g
       id="group-R5">
      <path
         id="path2"
         d="m 2670.03,595.316 -21.66,-145.437 c -3.45,-24.242 -13.65,-44.258 -30.67,-60.012 -17.02,-15.773 -36.57,-23.719 -58.64,-23.836 -25.65,-0.136 -42.76,4.047 -51.37,12.563 -8.59,8.492 -10.82,26.304 -6.68,53.379 l 26.82,181.812 c 3.41,23.539 12.07,40.492 25.9,50.899 13.83,10.39 32.12,15.671 54.94,15.793 24.92,0.132 42.41,-7.434 52.5,-22.704 10.04,-15.257 13,-36.082 8.86,-62.457 z m 149.78,435.714 0.04,0.05 h -169.52 l -25.73,-102.943 91.53,-16.282 -23.44,-156.121 c -13.63,17.028 -26,27.989 -37.05,32.918 -11.07,4.934 -27.66,7.328 -49.73,7.219 -62.69,-0.332 -110.7,-15.207 -144.01,-44.582 -33.35,-29.391 -54.83,-75.469 -64.44,-138.187 l -26.82,-182.868 c -9.65,-62.054 -1.2,-107.433 25.29,-136.136 26.53,-28.707 68.99,-42.895 127.42,-42.582 19.93,0.089 39.67,5.011 59.21,14.734 19.52,9.727 37.45,21.738 53.76,36.086 l 8.79,-41.625 105.78,0.574 115.57,770.015 -46.65,-0.27"
         style="fill:#1181bb;fill-opacity:1;fill-rule:nonzero;stroke:none"
         transform="matrix(0.13333333,0,0,-0.13333333,0,137.50667)" />
      <path
         id="path3"
         d="m 2065.27,792.738 c 14.26,0 24.76,-1.265 31.54,-3.738 6.76,-2.523 13.73,-5.535 20.85,-9.098 0.71,-0.718 1.24,-0.898 1.61,-0.543 0.35,0.348 0.88,0.168 1.6,-0.531 l -39.56,-116.551 c -8.56,4.985 -17.48,8.907 -26.74,11.762 -9.26,2.836 -17.82,4.285 -25.65,4.285 -17.83,0 -33.87,-6.965 -48.12,-20.863 -14.28,-13.91 -23.54,-35.809 -27.81,-65.77 l -51.34,-330.406 h -128.32 l 81.27,523.961 h 96.25 l 4.28,-53.457 c 18.54,24.223 36.52,40.441 54.01,48.645 17.46,8.199 36.17,12.304 56.13,12.304"
         style="fill:#1181bb;fill-opacity:1;fill-rule:nonzero;stroke:none"
         transform="matrix(0.13333333,0,0,-0.13333333,0,137.50667)" />
      <path
         id="path4"
         d="m 2228.86,988.426 h 131.54 l -20.33,-131.539 h -131.52 z m -32.07,-203.18 h 131.53 l -81.27,-523.961 h -131.53 l 81.27,523.961"
         style="fill:#1181bb;fill-opacity:1;fill-rule:nonzero;stroke:none"
         transform="matrix(0.13333333,0,0,-0.13333333,0,137.50667)" />
      <path
         id="path5"
         d="m 1550.58,387.965 c -14.67,-15.363 -34.45,-23.07 -59.34,-23.07 -22.75,0 -39.47,5.203 -50.15,15.558 -10.69,10.371 -14.19,27.336 -10.51,50.918 l 28.18,182.277 c 4.09,27.168 11.7,45.032 22.86,53.594 11.17,8.594 29.55,12.879 55.14,12.879 22.03,0 39.19,-7.863 51.42,-23.598 12.24,-15.707 16.4,-35.73 12.52,-60.035 l -22.35,-145.824 c -3.84,-26.414 -13.1,-47.344 -27.77,-62.699 z m 209.65,398.277 h -105.59 l -21.35,-41.793 c -11.97,14.297 -26.25,26.254 -42.85,35.903 -16.6,9.644 -34.84,14.484 -54.74,14.484 -58.3,0 -105.06,-14.484 -140.24,-43.426 -35.19,-28.937 -57.36,-74.515 -66.47,-136.683 l -28.51,-183.344 c -9.35,-62.891 -1.81,-108.988 22.62,-138.301 24.41,-29.293 67.93,-43.98 130.49,-43.98 22.03,0 39.33,2.535 51.89,7.519 12.43,4.953 27.93,15.895 46.48,32.777 -0.15,-1.996 -0.34,-4.222 -0.62,-6.714 l 1,0.261 -15.29,-101.152 c -4.29,-24.242 -13.21,-41.523 -26.74,-51.859 -13.56,-10.348 -31.39,-15.496 -53.48,-15.496 -14.26,0 -26.01,0.683 -35.27,2.128 -9.28,1.426 -16.58,4.641 -21.94,9.637 -5.34,4.965 -8.55,11.918 -9.61,20.832 -1.07,8.93 -0.54,21.211 1.61,36.906 l -130.08,-0.171 c -5,-29.946 -4.12,-58.098 3.36,-80.559 7.48,-22.4688 19.24,-41.3751 35.29,-56.6758 16.04,-15.336 35.99,-26.9258 59.87,-34.7539 C 1383.94,3.94141 1410.13,0 1438.67,0 c 29.22,0 56.66,3.76172 82.32,11.2383 25.68,7.4922 48.65,18.7226 68.99,33.6914 20.31,14.9726 37.22,33.8555 50.78,56.6683 13.53,22.797 22.81,49.527 27.81,80.195 l 27.79,182.871 c 1.02,6.902 1.64,13.574 1.97,20.106 l 61.9,401.472"
         style="fill:#1181bb;fill-opacity:1;fill-rule:nonzero;stroke:none"
         transform="matrix(0.13333333,0,0,-0.13333333,0,137.50667)" />
      <path
         id="path6"
         d="m 1269.33,695.406 c -7.66,22.61 -19.71,41.856 -35.82,57.254 -16,15.285 -35.7,27.067 -58.59,35.074 -22.68,7.914 -47.29,11.934 -73.15,11.934 -28.55,0 -55.92,-3.797 -81.29,-11.309 -25.523,-7.558 -48.687,-19.043 -68.843,-34.168 -20.196,-15.148 -37.383,-34.144 -51.074,-56.5 -13.711,-22.378 -22.872,-48.679 -27.168,-78.117 L 843.863,433.016 c -4.336,-28.903 -3.019,-55.149 3.895,-78.02 6.945,-23.031 18.664,-42.543 34.816,-57.965 16.043,-15.32 36.133,-27.14 59.707,-35.101 23.379,-7.926 49.383,-11.918 77.299,-11.918 57.25,0 107.04,14.906 147.93,44.34 37.19,26.75 62.04,66.843 73.89,119.187 l 1.66,7.457 -123.2,0.039 -1.26,-4.461 c -5.05,-17.863 -13.68,-31.363 -25.7,-40.113 -15.7,-11.449 -35.41,-17.258 -58.57,-17.258 -28.51,0 -48.428,4.809 -59.178,14.266 -10.214,9.043 -13.086,28.797 -8.535,58.722 l 29.512,185.477 c 3.921,24.945 13.771,43.473 29.241,55.078 15.7,11.762 36.09,17.731 60.6,17.731 27.83,0 47.21,-4.622 57.61,-13.758 9.83,-8.649 12.55,-27.52 8,-56.082 l -2.37,-15.149 123.19,-0.019 1.93,12.254 c 4.36,28.914 2.66,55.054 -5,77.683"
         style="fill:#0a5279;fill-opacity:1;fill-rule:nonzero;stroke:none"
         transform="matrix(0.13333333,0,0,-0.13333333,0,137.50667)" />
      <path
         id="path7"
         d="m 707.367,620.715 -6.023,-38.336 H 546.285 l 5.625,35.359 c 3.945,24.953 13.77,43.485 29.238,55.09 15.704,11.758 36.094,17.742 60.625,17.742 27.813,0 47.196,-4.632 57.598,-13.757 9.844,-8.665 12.527,-27.532 7.996,-56.098 z m 81.946,132.047 c -16.016,15.261 -35.723,27.066 -58.594,35.066 -22.696,7.906 -47.305,11.918 -73.145,11.918 -28.574,0 -55.937,-3.797 -81.289,-11.312 -25.547,-7.547 -48.711,-19.039 -68.867,-34.161 -20.195,-15.152 -37.383,-34.152 -51.074,-56.5 -13.711,-22.386 -22.871,-48.683 -27.168,-78.121 L 399.664,433.094 c -4.336,-28.91 -3.027,-55.145 3.887,-78.024 6.933,-23.035 18.652,-42.547 34.824,-57.965 16.035,-15.316 36.113,-27.121 59.688,-35.101 23.378,-7.902 49.375,-11.91 77.304,-11.91 57.266,0 107.031,14.902 147.949,44.359 37.188,26.75 62.071,66.899 73.887,119.328 l 1.699,7.489 -123.281,-0.235 -1.269,-4.461 c -5.051,-17.828 -13.672,-31.304 -25.664,-40.035 -15.704,-11.445 -35.411,-17.266 -58.555,-17.266 -28.535,0 -48.457,4.821 -59.18,14.286 -10.234,9.027 -13.105,28.793 -8.555,58.73 l 10.313,64.949 278.309,-0.117 19.093,120.68 c 4.344,28.918 2.657,55.062 -4.992,77.687 -7.664,22.598 -19.715,41.871 -35.808,57.274"
         style="fill:#0a5279;fill-opacity:1;fill-rule:nonzero;stroke:none"
         transform="matrix(0.13333333,0,0,-0.13333333,0,137.50667)" />
      <path
         id="path8"
         d="m 387.109,544.094 -12.656,-16.973 -106.117,-0.019 4.977,29.648 108.578,-0.012 z m 32.555,-102.078 71.371,95.761 -48.469,117.926 17.954,106.996 c 2.976,17.739 29.871,35.317 18.945,48.235 -10.774,12.757 -27.051,20.089 -44.676,20.113 -34.391,0 -65.805,-26.75 -71.578,-60.938 L 349.188,686.41 h -54.137 l 12.781,76.242 c 3.004,17.719 -1.519,35.293 -12.434,48.231 -10.785,12.789 -27.082,20.14 -44.726,20.164 -34.406,0 -65.891,-26.824 -71.633,-61.078 L 165.035,686.41 H 98.5273 c -34.371,0 -65.8046,-26.722 -71.5781,-60.871 -2.9844,-17.855 1.6524,-35.582 12.6875,-48.637 10.8125,-12.773 27.0508,-20.109 44.5469,-20.129 L 143.297,556.77 138.32,527.082 72.4609,527.074 C 38.1172,527.074 6.67578,500.258 0.882813,465.988 -2.09375,448.145 2.52734,430.434 13.5625,417.387 24.3945,404.598 40.6328,397.262 58.1484,397.246 l 58.4176,-0.012 -12.898,-76.918 -0.375,-2.175 c -2.723,-17.477 1.859,-34.743 12.617,-47.465 10.774,-12.754 27.059,-20.086 44.695,-20.113 h 0.04 0.007 c 34.399,0 65.825,26.828 71.547,61.07 l 14.364,85.574 54.195,-0.012 -12.992,-77.14 -0.356,-2.098 c -2.676,-17.391 1.895,-34.559 12.598,-47.242 10.773,-12.777 27.066,-20.125 44.695,-20.152 h 0.055 0.008 c 34.402,0 34.39,26.824 40.132,61.07 l 17.817,106.183 c 7.148,6.836 12.969,15.063 16.949,24.2"
         style="fill:#ffffff;fill-opacity:1;fill-rule:nonzero;stroke:none"
         transform="matrix(0.13333333,0,0,-0.13333333,0,137.50667)" />
      <path
         id="path9"
         d="m 344.719,272.305 c 23.738,-0.02 46.199,19.183 50.187,42.918 l 18.969,113.172 v 0 0.05 l 83.828,112.453 -46.152,112.282 18.976,113.113 c 3.985,23.715 -12.019,42.973 -35.738,43.008 -23.746,0 -46.219,-19.196 -50.16,-42.934 -0.039,-0.172 -0.055,-0.32 -0.074,-0.508 L 367.68,665.254 365.539,653.391 411.906,540.996 328.09,428.48 l -19,-112.746 c -0.035,-0.132 -0.074,-0.281 -0.094,-0.433 -4.008,-23.731 12.035,-42.953 35.723,-42.996"
         style="fill:#a3bcc2;fill-opacity:1;fill-rule:nonzero;stroke:none"
         transform="matrix(0.13333333,0,0,-0.13333333,0,137.50667)" />
      <path
         id="path10"
         d="M 161.609,664.66 H 98.5742 c -23.7187,0.031 -46.1719,-18.984 -50.1679,-42.703 -3.961,-23.734 12.0585,-43.422 35.7773,-43.437 0.0391,0 25.0824,0 62.8674,0 l 14.558,86.14"
         style="fill:#0a5279;fill-opacity:1;fill-rule:nonzero;stroke:none"
         transform="matrix(0.13333333,0,0,-0.13333333,0,137.50667)" />
      <path
         id="path11"
         d="m 277,578.504 c 32.316,0 95.336,0 95.336,0 l -29.305,72.59 2.516,13.566 H 291.406 L 277,578.504"
         style="fill:#0a5279;fill-opacity:1;fill-rule:nonzero;stroke:none"
         transform="matrix(0.13333333,0,0,-0.13333333,0,137.50667)" />
      <path
         id="path12"
         d="M 358.18,505.359 72.5078,505.324 c -23.7187,0.024 -46.1601,-19.191 -50.1758,-42.918 -3.9609,-23.73 12.1055,-43.398 35.8164,-43.414 0.1016,0 246.0976,-0.043 246.0976,-0.043 l 3.043,18.356 50.891,68.054"
         style="fill:#0a5279;fill-opacity:1;fill-rule:nonzero;stroke:none"
         transform="matrix(0.13333333,0,0,-0.13333333,0,137.50667)" />
      <path
         id="path13"
         d="m 139.082,397.125 -13.644,-81.391 c -0.032,-0.132 -0.086,-0.281 -0.106,-0.433 -3.961,-23.731 12.016,-42.953 35.762,-42.996 23.719,-0.02 46.179,19.183 50.148,42.918 l 13.731,81.894 -85.891,0.008"
         style="fill:#1181bb;fill-opacity:1;fill-rule:nonzero;stroke:none"
         transform="matrix(0.13333333,0,0,-0.13333333,0,137.50667)" />
      <path
         id="path14"
         d="m 246.77,527.094 40.113,239.199 c 4.019,23.715 -12.024,42.973 -35.723,43.008 -23.746,0 -46.215,-19.196 -50.195,-42.934 0,-0.172 -0.02,-0.32 -0.059,-0.508 l -40.019,-238.711 85.883,-0.054"
         style="fill:#1181bb;fill-opacity:1;fill-rule:nonzero;stroke:none"
         transform="matrix(0.13333333,0,0,-0.13333333,0,137.50667)" />
    </g>
  </g>
</svg>
